<svg id="_x33_0" enable-background="new 0 0 64 64" height="512" viewBox="0 0 64 64" width="512" xmlns="http://www.w3.org/2000/svg"><g><g><g><path d="m22.31 16.54c.01.02.01.03.02.04.34.84 1.12 1.42 2.03 1.42h1.64v4.39c-1.3-.25-2.63-.39-4-.39-.81 0-1.61.05-2.39.14.25-.66.39-1.39.39-2.14 0-3.31-2.69-6-6-6s-6 2.69-6 6c0 2.25 1.24 4.21 3.08 5.24l.01.01c-1.76 1.13-3.32 2.54-4.63 4.17h-.01l-2.35-2.35 1.16-1.15c.65-.65.78-1.62.43-2.46-.01-.02-.01-.03-.02-.04-.34-.84-1.12-1.42-2.03-1.42h-1.64v-4h1.64c.91 0 1.69-.58 2.03-1.42.01-.01.01-.02.02-.04.35-.84.22-1.81-.43-2.46l-1.16-1.15 2.83-2.83 1.15 1.16c.65.65 1.62.78 2.46.43.02-.01.03-.01.04-.02.84-.34 1.42-1.12 1.42-2.03v-1.64h4v1.64c0 .91.58 1.69 1.42 2.03.01.01.02.01.04.02.84.35 1.81.22 2.46-.43l1.15-1.16 2.83 2.83-1.16 1.15c-.65.65-.78 1.62-.43 2.46z" fill="#ffc729"/></g><g><path d="m19.61 22.14c-3.1.37-5.97 1.44-8.46 3.06v.01c-.02 0-.04.02-.06.04l-.01-.01c-1.84-1.03-3.08-2.99-3.08-5.24 0-3.31 2.69-6 6-6s6 2.69 6 6c0 .75-.14 1.48-.39 2.14zm-5.61-.14c1.1 0 2-.9 2-2s-.9-2-2-2-2 .9-2 2 .9 2 2 2z" fill="#fcd770"/></g><g><path d="m40 46h1.6c-.28 1.39-.71 2.73-1.26 4h-6.49c-1.13 0-2.17-.64-2.68-1.66l-.37-.73c-.49-.99-1.5-1.61-2.6-1.61-.77 0-1.51.31-2.05.85l-1.27 1.27c-.56.56-.88 1.33-.88 2.12v2.42c0 .68-.24 1.33-.64 1.84-.4.52-.96.9-1.63 1.07-1.02.25-1.73 1.16-1.73 2.21 0 .78.31 1.53.86 2.08l2.12 2.12c-.32.01-.65.02-.98.02-3.46 0-6.72-.88-9.56-2.44l2.38-2.38c.75-.75 1.18-1.78 1.18-2.85 0-.85-.34-1.67-.94-2.27-.68-.68-1.06-1.6-1.06-2.56s.38-1.88 1.06-2.56l1.32-1.32c.4-.4.62-.94.62-1.5 0-.58-.24-1.12-.62-1.5s-.92-.62-1.5-.62c-.56 0-1.1.22-1.5.62l-2.56 2.56c-.53.53-1.24.82-1.98.82-.55 0-1.08-.16-1.54-.47l-1.29-.86c-.66-.44-1.43-.67-2.22-.67h-1.69c-.07-.66-.1-1.32-.1-2 0-1.04.08-2.05.23-3.04l3.26-.54c1.45-.24 2.51-1.49 2.51-2.96v-.05c0-.9.36-1.77 1-2.41s1.51-1 2.41-1h.34c.62 0 1.18-.25 1.59-.66s.66-.97.66-1.59c0-.49-.16-.96-.45-1.35l-2.4-3.19v-.01c2.49-1.62 5.36-2.69 8.46-3.06.78-.09 1.58-.14 2.39-.14 1.37 0 2.7.14 4 .39v.01c2.42.49 4.69 1.42 6.71 2.71l-2.84 1.14c-1.13.45-1.87 1.55-1.87 2.77 0 .82-.34 1.56-.88 2.1s-1.28.88-2.1.88h-.19c-.53 0-1.04.21-1.42.59l-.92.92c-.31.31-.49.74-.49 1.18 0 .77.52 1.44 1.27 1.63l1.22.3c.89.22 1.51 1.02 1.51 1.94 0 .8.64 1.44 1.44 1.44h2.32c1.37 0 2.63.77 3.24 2s1.87 2 3.24 2h1.76c0 1.1.9 2 2 2z" fill="#69d6f4"/></g><g><path d="m36 29c0 .55.45 1 1 1h1v4h-1c-.55 0-1 .45-1 1v2c0 .55.45 1 1 1h1v6h-1.76c-1.37 0-2.63-.77-3.24-2s-1.87-2-3.24-2h-2.32c-.8 0-1.44-.64-1.44-1.44 0-.92-.62-1.72-1.51-1.94l-1.22-.3c-.75-.19-1.27-.86-1.27-1.63 0-.44.18-.87.49-1.18l.92-.92c.38-.38.89-.59 1.42-.59h.19c.82 0 1.56-.34 2.1-.88s.88-1.28.88-2.1c0-1.22.74-2.32 1.87-2.77l2.84-1.14h.01c1.19.76 2.29 1.63 3.28 2.61z" fill="#b4dd7f"/></g><g><path d="m33.85 50h6.49c-2.97 6.78-9.58 11.6-17.36 11.98l-2.12-2.12c-.55-.55-.86-1.3-.86-2.08 0-1.05.71-1.96 1.73-2.21.67-.17 1.23-.55 1.63-1.07.4-.51.64-1.16.64-1.84v-2.42c0-.79.32-1.56.88-2.12l1.27-1.27c.54-.54 1.28-.85 2.05-.85 1.1 0 2.11.62 2.6 1.61l.37.73c.51 1.02 1.55 1.66 2.68 1.66z" fill="#b4dd7f"/></g><g><path d="m16.38 42.62c.38.38.62.92.62 1.5 0 .56-.22 1.1-.62 1.5l-1.32 1.32c-.68.68-1.06 1.6-1.06 2.56s.38 1.88 1.06 2.56c.6.6.94 1.42.94 2.27 0 1.07-.43 2.1-1.18 2.85l-2.38 2.38c-5.67-3.08-9.67-8.82-10.34-15.56h1.69c.79 0 1.56.23 2.22.67l1.29.86c.46.31.99.47 1.54.47.74 0 1.45-.29 1.98-.82l2.56-2.56c.4-.4.94-.62 1.5-.62.58 0 1.12.24 1.5.62z" fill="#b4dd7f"/></g><g><path d="m13.55 28.4c.29.39.45.86.45 1.35 0 .62-.25 1.18-.66 1.59s-.97.66-1.59.66h-.34c-.9 0-1.77.36-2.41 1s-1 1.51-1 2.41v.05c0 1.47-1.06 2.72-2.51 2.96l-3.26.54c.55-3.58 2.05-6.85 4.23-9.54 1.31-1.63 2.87-3.04 4.63-4.17.02-.02.04-.04.06-.04z" fill="#b4dd7f"/></g><g><path d="m50 42v2c0 1.1-.9 2-2 2h-6.4-1.6c-1.1 0-2-.9-2-2v-6h12z" fill="#dfb28b"/></g><g><path d="m52 35v2c0 .55-.45 1-1 1h-1-12-1c-.55 0-1-.45-1-1v-2c0-.55.45-1 1-1h1 6 6 1c.55 0 1 .45 1 1z" fill="#cf9e76"/></g><g><path d="m42 30h8v4h-12v-4z" fill="#ccd1d9"/></g><g><path d="m47.1 2h-6.2c-3.01 0-5.74 1.22-7.71 3.19s-3.19 4.7-3.19 7.71c0 3.23 1.44 6.3 3.92 8.37l.64.53c.91.76 1.44 1.89 1.44 3.07v2.85 1.28c0 .55.45 1 1 1h14c.55 0 1-.45 1-1v-4.13c0-1.18.53-2.31 1.44-3.07l.64-.53c1.24-1.03 2.22-2.32 2.89-3.75s1.03-3 1.03-4.62c0-6.02-4.88-10.9-10.9-10.9z" fill="#ffeaa7"/></g><g><path d="m48.66 10.05c1.72.28 3.1 1.72 3.31 3.46.23 1.95-.93 3.66-2.63 4.26-.78.28-1.34.96-1.34 1.79v10.44h-4-4v-10.44c0-.83-.56-1.51-1.34-1.79-1.7-.6-2.86-2.31-2.63-4.26.21-1.74 1.59-3.18 3.31-3.46.97-.15 1.88.04 2.64.47l.01.01c.6-.34 1.29-.53 2.01-.53s1.41.19 2.01.53l.01-.01c.76-.43 1.67-.62 2.64-.47z" fill="#fcd770"/></g></g><path d="m60 57h-10c-.551 0-1-.448-1-1s.449-1 1-1h8c1.654 0 3-1.346 3-3s-1.346-3-3-3h-2c-.551 0-1-.448-1-1s.449-1 1-1h4c1.654 0 3-1.346 3-3s-1.346-3-3-3h-9v-2c1.103 0 2-.897 2-2v-2c0-1.103-.897-2-2-2v-2c1.103 0 2-.897 2-2v-4.126c0-.893.394-1.733 1.08-2.305l.639-.534c2.721-2.267 4.281-5.597 4.281-9.139 0-6.559-5.337-11.896-11.896-11.896h-6.207c-6.56 0-11.897 5.337-11.897 11.896 0 3.541 1.56 6.872 4.28 9.139l.64.534c.686.572 1.08 1.411 1.08 2.305v.642c-2.371-1.876-5.093-3.185-8-3.894v-4.622h-2.639c-.48 0-.905-.307-1.128-.842-.207-.494-.123-1.031.216-1.367l1.867-1.859-4.248-4.248-1.858 1.867c-.337.337-.873.423-1.41.198-.493-.205-.8-.629-.8-1.11v-2.639h-6v2.639c0 .48-.307.905-.842 1.128-.494.207-1.032.122-1.367-.216l-1.859-1.867-4.248 4.248 1.867 1.858c.338.337.423.874.198 1.41-.205.493-.629.8-1.11.8h-2.639v6h2.639c.48 0 .905.307 1.128.842.207.494.123 1.031-.216 1.367l-1.867 1.859 2.46 2.46c-2.591 3.493-4.144 7.799-4.144 12.472 0 11.579 9.42 21 21 21 9.671 0 18.101-6.685 20.38-16h5.62c1.654 0 3-1.346 3-3v-1h9c.551 0 1 .448 1 1s-.449 1-1 1h-4c-1.654 0-3 1.346-3 3s1.346 3 3 3h2c.551 0 1 .448 1 1s-.449 1-1 1h-8c-1.654 0-3 1.346-3 3s1.346 3 3 3h10c.551 0 1 .448 1 1s-.449 1-1 1h-21v2h21c1.654 0 3-1.346 3-3s-1.346-3-3-3zm-11-16h-2v-2h2zm-9 4c-.551 0-1-.448-1-1v-1h2v2zm1-6v2h-2v-2zm2 4h2v2h-2zm0-2v-2h2v2zm8.001-4h-14.001v-2h14zm-12.007-20.172c-1.329-.473-2.14-1.79-1.971-3.201.154-1.296 1.197-2.384 2.479-2.587.141-.023.28-.029.419-.033-.348.451-.631.959-.819 1.522l-.051.154 1.897.633.052-.154c.431-1.293 1.637-2.162 3-2.162s2.569.869 3 2.163l.051.154 1.897-.633-.051-.153c-.188-.563-.47-1.072-.819-1.523.139.004.279.01.42.033 1.282.204 2.325 1.292 2.479 2.587.168 1.411-.642 2.727-1.97 3.2-1.219.433-2.007 1.506-2.007 2.735v9.437h-2v-10h-2v10.001h-2v-9.438c0-1.229-.788-2.302-2.006-2.735zm4.006 14.172v2h-4v-2zm6 2h-4v-2h4zm-14.439-12.501c-2.263-1.886-3.561-4.657-3.561-7.603 0-5.457 4.439-9.896 9.896-9.896h6.207c5.458 0 9.897 4.439 9.897 9.896 0 2.945-1.298 5.716-3.562 7.603l-.639.533c-1.143.953-1.799 2.353-1.799 3.842v4.126h-2v-9.437c0-.371.266-.705.678-.852 2.214-.789 3.565-2.977 3.286-5.321-.258-2.166-2.004-3.985-4.151-4.326-.969-.152-1.921-.017-2.794.362-.627-.267-1.306-.426-2.019-.426-.712 0-1.392.159-2.018.426-.872-.38-1.823-.514-2.794-.361-2.147.34-3.894 2.16-4.152 4.326-.279 2.344 1.072 4.532 3.287 5.321.411.146.677.48.677.851v9.438h-2v-4.128c0-1.488-.656-2.889-1.799-3.841zm2.439 10.501v2c-1.103 0-2 .897-2 2v2c0 1.103.897 2 2 2v4h-.764c-.998 0-1.895-.555-2.341-1.447-.788-1.574-2.371-2.553-4.131-2.553h-2.326c-.241 0-.438-.196-.438-.438 0-1.379-.935-2.576-2.273-2.911l-1.217-.303c-.3-.075-.51-.345-.51-.654 0-.181.07-.35.197-.477l.924-.924c.189-.189.441-.293.708-.293h.189c2.195 0 3.982-1.787 3.982-3.982 0-.814.488-1.536 1.244-1.838l2.355-.942c.845.57 1.645 1.217 2.4 1.927v.835c.001 1.103.898 2 2.001 2zm-31.484-3.929.446-.444c.918-.914 1.172-2.311.634-3.592-.511-1.236-1.672-2.035-2.957-2.035h-.639v-2h.639c1.285 0 2.446-.799 2.972-2.068.524-1.248.27-2.645-.648-3.56l-.446-.444 1.413-1.413.444.446c.915.918 2.311 1.172 3.592.634 1.235-.51 2.034-1.671 2.034-2.956v-.639h2v.639c0 1.285.799 2.446 2.068 2.972 1.249.525 2.645.27 3.56-.648l.444-.446 1.413 1.413-.446.444c-.918.914-1.172 2.311-.634 3.592.51 1.235 1.671 2.034 2.956 2.034h.639v2.237c-.988-.141-1.986-.237-3-.237-.366 0-.724.036-1.086.055.053-.348.086-.699.086-1.055 0-3.86-3.14-7-7-7s-7 3.14-7 7c0 2.032.897 3.931 2.391 5.246-1.078.813-2.072 1.725-2.974 2.726zm8.484-6.071c-.551 0-1-.449-1-1s.449-1 1-1 1 .449 1 1-.449 1-1 1zm0-4c-1.654 0-3 1.346-3 3 0 1.413.985 2.593 2.302 2.91-.754.345-1.481.736-2.185 1.165-1.315-.933-2.117-2.447-2.117-4.075 0-2.757 2.243-5 5-5s5 2.243 5 5c0 .434-.074.855-.183 1.268-.822.126-1.628.295-2.417.513.372-.5.6-1.112.6-1.781 0-1.654-1.346-3-3-3zm-3.062 9.583 1.812 2.417c.161.215.25.481.25.75 0 .689-.561 1.25-1.25 1.25h-.336c-1.179 0-2.288.459-3.122 1.293-.833.834-1.292 1.942-1.292 3.166 0 .981-.703 1.812-1.671 1.973l-1.829.304c1.052-4.565 3.75-8.498 7.438-11.153zm-7.677 18.417h.529c.595 0 1.17.174 1.664.504l1.289.859c1.466.977 3.536.772 4.782-.474l2.562-2.562c.211-.211.492-.327.792-.327.618 0 1.121.503 1.121 1.121 0 .295-.12.584-.328.793l-1.318 1.318c-.861.86-1.354 2.051-1.354 3.268s.493 2.408 1.354 3.268c.417.417.646.971.646 1.56 0 .811-.316 1.573-.889 2.146l-1.824 1.825c-4.731-2.83-8.124-7.647-9.026-13.299zm20.093 15.94-1.785-1.785c-.361-.361-.569-.862-.569-1.374 0-.589.399-1.1.97-1.243 1.784-.445 3.03-2.042 3.03-3.881v-2.415c0-.526.213-1.042.586-1.414l1.27-1.27c.355-.354.846-.558 1.348-.558.727 0 1.38.403 1.705 1.054l.368.735c.681 1.363 2.052 2.211 3.577 2.211h4.863c-3.042 5.624-8.81 9.47-15.363 9.94zm16.314-11.94h-5.814c-.762 0-1.448-.424-1.789-1.105l-.368-.735c-.665-1.333-2.004-2.16-3.493-2.16-1.043 0-2.024.406-2.762 1.145l-1.27 1.27c-.745.743-1.172 1.773-1.172 2.827v2.415c0 .92-.623 1.718-1.515 1.941-1.463.366-2.485 1.675-2.485 3.183 0 1.038.421 2.055 1.155 2.788l.355.355c-2.259-.177-4.403-.748-6.373-1.649l1.387-1.387c.952-.95 1.476-2.215 1.476-3.56 0-1.124-.438-2.18-1.232-2.975-.488-.487-.768-1.163-.768-1.853s.28-1.366.768-1.854l1.318-1.318c.581-.581.914-1.385.914-2.207 0-1.721-1.4-3.121-3.121-3.121-.834 0-1.618.324-2.207.914l-2.563 2.562c-.587.589-1.564.688-2.257.224l-1.289-.86c-.824-.55-1.783-.84-2.774-.84h-.738c-.018-.333-.051-.662-.051-1 0-.737.052-1.46.134-2.175l2.523-.421c1.937-.323 3.343-1.982 3.343-3.99 0-.645.251-1.251.707-1.707.449-.449 1.072-.707 1.707-.707h.336c1.792 0 3.25-1.458 3.25-3.25 0-.699-.231-1.392-.65-1.95l-1.727-2.303c2.77-1.581 5.966-2.497 9.377-2.497 2.958 0 5.812.69 8.394 1.965l-.893.357c-1.519.608-2.501 2.059-2.501 3.696 0 1.093-.889 1.982-1.982 1.982h-.189c-.801 0-1.555.312-2.122.879l-.923.923c-.506.505-.784 1.177-.784 1.891 0 1.229.833 2.296 2.025 2.595l1.217.303c.446.112.758.511.758.971 0 1.344 1.094 2.438 2.438 2.438h2.326c.998 0 1.895.555 2.341 1.447.788 1.574 2.37 2.553 4.13 2.553h.948c.414 1.161 1.514 2 2.816 2h.321c-.185.682-.395 1.353-.652 2zm9.332-5c0 .552-.449 1-1 1h-1v-2h2z"/></g></svg>