<svg height="512" viewBox="0 0 512 512" width="512" xmlns="http://www.w3.org/2000/svg"><g id="Flat"><path d="m128 136a39.93407 39.93407 0 0 1 -16 32v16h-48v-16a40 40 0 1 1 64-32z" fill="#eedc9a"/><path d="m184 152h36a0 0 0 0 1 0 0v64a0 0 0 0 1 0 0h-36a32 32 0 0 1 -32-32 32 32 0 0 1 32-32z" fill="#f2c194"/><path d="m392 152h32a0 0 0 0 1 0 0v64a0 0 0 0 1 0 0h-32a32 32 0 0 1 -32-32 32 32 0 0 1 32-32z" fill="#f2c194" transform="matrix(-1 0 0 -1 784 368)"/><path d="m488 496h-400a147.86476 147.86476 0 0 1 13.24-61.12988 131.66922 131.66922 0 0 1 89.71-73.68018l33.36011-7.8501 15.02-3.54a32.00572 32.00572 0 0 0 24.66989-31.13968v-22.66016h48v22.66016a32.00572 32.00572 0 0 0 24.66992 31.13964l15.02 3.54 33.36011 7.8501a131.69056 131.69056 0 0 1 89.71 73.68018 147.82677 147.82677 0 0 1 13.23997 61.12992z" fill="#c4d4e0"/><path d="m248 496h-160a147.86476 147.86476 0 0 1 13.24-61.12988 131.6643 131.6643 0 0 1 82.31006-71.71c2.43994-.73 4.90991-1.38037 7.3999-1.97022l33.36011-7.8501 14.69993 63.6802a350.79967 350.79967 0 0 1 8.88989 70.91992q.10511 4.02029.10011 8.06008z" fill="#396795"/><path d="m192 456 16-40h-32l7.55-52.83984c2.43994-.73 4.90991-1.38037 7.3999-1.97022l33.36011-7.8501 14.69999 63.68016a350.79967 350.79967 0 0 1 8.88989 70.91992z" fill="#26507a"/><path d="m488 496h-160q0-4.03491.1001-8.06006a350.79967 350.79967 0 0 1 8.8899-70.91994l14.7-63.68018 33.36011 7.8501q3.735.87012 7.3999 1.97022a131.69146 131.69146 0 0 1 82.31006 71.71 147.82677 147.82677 0 0 1 13.23993 61.12986z" fill="#396795"/><path d="m368 416 16 40-55.8999 31.93994a350.79967 350.79967 0 0 1 8.8899-70.91994l14.7-63.68018 33.36011 7.8501q3.735.87012 7.3999 1.97022l7.54999 52.83986z" fill="#26507a"/><path d="m288 360-32 40-40-48 24-16z" fill="#a6b2bc"/><path d="m360 352-40 48-32-40 48-24z" fill="#a6b2bc"/><path d="m376 104v112.00009a87.99991 87.99991 0 0 1 -87.99991 87.99991h-.00018a87.99991 87.99991 0 0 1 -87.99991-87.99991v-111.34649z" fill="#f4ceaf"/><circle cx="240" cy="176" fill="#966342" r="8"/><circle cx="336" cy="176" fill="#966342" r="8"/><path d="m256 168h-32a8 8 0 0 1 0-16h32a8 8 0 0 1 0 16z" fill="#ad7d4d"/><path d="m352 168h-32a8 8 0 0 1 0-16h32a8 8 0 0 1 0 16z" fill="#ad7d4d"/><path d="m392 104v48h-16l-40-32-104.43994 29.83984a56.13721 56.13721 0 0 1 -71.56006-53.97998v-23.85986c0-15.98 13.07007-26.57007 26.7-26.57007a25.96017 25.96017 0 0 1 18.55 7.82007 26.50832 26.50832 0 0 0 37.5 0l15.18994-15.18994a48.00341 48.00341 0 0 1 33.93994-14.06006h20.12012a48.004 48.004 0 0 1 48 48 32.00409 32.00409 0 0 1 32 32z" fill="#ad7d4d"/><path d="m392 104v48h-16l-40-32a57.94108 57.94108 0 0 1 16.97055-40.97053l7.02945-7.02947a32.00409 32.00409 0 0 1 32 32z" fill="#966342"/><path d="m295.999 216.002a8.00486 8.00486 0 0 1 -7.58886-5.47168l-8-24a8.0005 8.0005 0 0 1 15.17968-5.06054l8 24a8.00445 8.00445 0 0 1 -7.59082 10.53222z" fill="#f2c194"/><rect fill="#e7999b" height="48" rx="16" width="32" x="272" y="232"/><path d="m288 288a24.0275 24.0275 0 0 1 -24-24v-16a24 24 0 0 1 48 0v16a24.0275 24.0275 0 0 1 -24 24zm0-48a8.00917 8.00917 0 0 0 -8 8v16a8 8 0 0 0 16 0v-16a8.00917 8.00917 0 0 0 -8-8z" fill="#f2c194"/><path d="m103.84473 181.82715-15.68946-3.13867 6.08594-30.43067h-12.48242l6.08594 30.43067-15.68946 3.13867-8-40a8.00013 8.00013 0 0 1 7.84473-9.56934h32a8.00013 8.00013 0 0 1 7.84473 9.56934z" fill="#e88604"/><path d="m72 200h32a0 0 0 0 1 0 0v8a16 16 0 0 1 -16 16 16 16 0 0 1 -16-16v-8a0 0 0 0 1 0 0z" fill="#eebe33"/><rect fill="#a6b2bc" height="24" rx="12" width="64" x="56" y="176"/><g fill="#eebe33"><path d="m80 64h16v16h-16z"/><path d="m125.254 82.745h16.001v16.001h-16.001z" transform="matrix(.707 -.707 .707 .707 -25.137 120.804)"/><path d="m144 128h16v16h-16z"/><path d="m34.745 82.745h16.001v16.001h-16.001z" transform="matrix(.707 -.707 .707 .707 -51.647 56.804)"/><path d="m16 128h16v16h-16z"/></g><path d="m322.79 342.60986-34.79 17.39014-34.79-17.39014a31.94124 31.94124 0 0 0 10.79-23.9497v-22.66016h48v22.66016a31.94124 31.94124 0 0 0 10.79 23.9497z" fill="#f4ceaf"/><path d="m128 424v72h-104v-72a15.99564 15.99564 0 0 1 16-16h72a15.99564 15.99564 0 0 1 16 16z" fill="#396795"/><path d="m128 424v72h-16v-72a15.99564 15.99564 0 0 0 -16-16h16a15.99564 15.99564 0 0 1 16 16z" fill="#26507a"/><path d="m120 320v16a15.99564 15.99564 0 0 1 -16 16v7.06006a37.59185 37.59185 0 0 1 -1.07007 8.91992 36.913 36.913 0 0 1 -2.92993 8.02002 37.77132 37.77132 0 0 0 -4 16.93994v15.06006h-56v-88a15.99564 15.99564 0 0 1 16-16h48a15.99564 15.99564 0 0 1 16 16z" fill="#f4ceaf"/><path d="m88 248a16 16 0 0 1 16 16v40a0 0 0 0 1 0 0h-32a0 0 0 0 1 0 0v-40a16 16 0 0 1 16-16z" fill="#f4ceaf"/><path d="m104 352v7.06006a37.59185 37.59185 0 0 1 -1.07007 8.91992 32.04475 32.04475 0 0 1 -30.92993-31.97998 8 8 0 0 1 16 0 16.02132 16.02132 0 0 0 16 16z" fill="#f2c194"/><path d="m104 304h-32v-8l32-16z" fill="#f2c194"/></g></svg>