<svg id="Layer_1" height="512" viewBox="0 0 512 512" width="512" xmlns="http://www.w3.org/2000/svg" data-name="Layer 1"><path d="m501.575 214.111-48.993-4.711a198.7 198.7 0 0 0 -25.062-59.432l31.218-37.649a6 6 0 0 0 -.352-8.048l-50.092-50.671a6 6 0 0 0 -8.091-.406l-37.752 31.222a204.017 204.017 0 0 0 -59.472-25.073l-4.722-48.924a6 6 0 0 0 -5.973-5.419h-71.927a6 6 0 0 0 -5.972 5.423l-4.722 48.923a199.187 199.187 0 0 0 -59.517 25.036l-37.708-31.19a6 6 0 0 0 -8.064.378l-50.733 50.669a6 6 0 0 0 -.379 8.075l31.256 37.694a203.489 203.489 0 0 0 -25.098 59.392l-48.995 4.716a6 6 0 0 0 -5.425 5.967v71.834a6 6 0 0 0 5.425 5.972l48.993 4.716a198.7 198.7 0 0 0 25.062 59.432l-31.218 37.649a6 6 0 0 0 .379 8.075l50.733 50.669a6 6 0 0 0 8.064.378l37.753-31.224a204.01 204.01 0 0 0 59.472 25.072l4.722 48.925a6 6 0 0 0 5.972 5.419h71.927a6 6 0 0 0 5.973-5.423l4.722-48.923a199.242 199.242 0 0 0 59.521-25.032l37.7 31.186a6 6 0 0 0 8.065-.378l50.735-50.669a6 6 0 0 0 .379-8.075l-31.257-37.694a203.522 203.522 0 0 0 25.1-59.392l48.357-4.711a6 6 0 0 0 5.421-5.972v-71.834a6 6 0 0 0 -5.425-5.972zm-6.575 72.362-47.242 4.6a6 6 0 0 0 -5.282 4.7 191.66 191.66 0 0 1 -26.791 63.434 6 6 0 0 0 .42 7.086l30.546 36.837-43 42.948-36.9-30.515a6 6 0 0 0 -7.149-.371 186.647 186.647 0 0 1 -63.447 26.709 6 6 0 0 0 -4.706 5.288l-4.614 47.811h-61.028l-4.615-47.81a6 6 0 0 0 -4.706-5.288 192.162 192.162 0 0 1 -63.52-26.759 6 6 0 0 0 -7.074.421l-36.9 30.515-43-42.948 30.544-36.831a6 6 0 0 0 .371-7.16 186.124 186.124 0 0 1 -26.74-63.359 6 6 0 0 0 -5.289-4.7l-47.878-4.614v-60.934l47.878-4.609a6 6 0 0 0 5.289-4.7 191.622 191.622 0 0 1 26.79-63.434 6 6 0 0 0 -.421-7.085l-30.546-36.84 43-42.948 36.9 30.515a6 6 0 0 0 7.149.371 186.623 186.623 0 0 1 63.445-26.709 6 6 0 0 0 4.706-5.288l4.617-47.806h61.028l4.614 47.81a6 6 0 0 0 4.706 5.288 192.164 192.164 0 0 1 63.522 26.758 6 6 0 0 0 7.074-.42l36.869-30.498 42.411 42.9-30.567 36.862a6 6 0 0 0 -.371 7.16 186.124 186.124 0 0 1 26.74 63.359 6 6 0 0 0 5.289 4.7l47.878 4.614z"/><path d="m256.321 110.181c-80.505 0-146 65.414-146 145.819s65.5 145.819 146 145.819 146-65.414 146-145.819-65.495-145.819-146-145.819zm0 279.638c-73.887 0-134-60.031-134-133.819s60.113-133.819 134-133.819 134 60.031 134 133.819-60.112 133.819-134 133.819z"/><path d="m330.844 225.42c-4.634-22.965-21.339-37.8-42.558-37.8-10.342 0-21.414 3.717-32.237 10.787-10.958-7.394-21.88-11.138-32.517-11.138-21.349 0-37.991 15-42.393 38.212-6.244 32.544 13.255 75.617 70.89 98.486.1.041.21.08.318.116a10.452 10.452 0 0 0 7.3 0c.122-.041.241-.085.358-.132 57.615-23.343 77.1-66.282 70.847-98.483-.002-.019-.005-.034-.008-.048zm-74.852 87.2c-50.906-20.377-68.365-57.28-63.066-84.9 3.33-17.556 15.057-28.461 30.606-28.461 9.01 0 18.995 3.9 28.877 11.269a6 6 0 0 0 7.112.047c9.882-7.173 19.83-10.965 28.765-10.965 15.482 0 27.277 10.788 30.79 28.156 7.324 37.815-26.325 69.802-63.084 84.857z"/></svg>